<svg width="1512" height="982" viewBox="0 0 1512 982" fill="none" xmlns="http://www.w3.org/2000/svg">
<g clip-path="url(#clip0_1_2)">
<g filter="url(#filter0_f_1_2)">
<path d="M1190.16 972.039C1216.67 1205.37 963.973 1425.67 625.749 1464.09C287.526 1502.51 -77.3426 857.163 -103.85 623.834C-130.356 390.506 221.216 954.657 559.439 916.233C897.663 877.81 1163.66 738.71 1190.16 972.039Z" fill="url(#paint0_linear_1_2)"/>
</g>
<g filter="url(#filter1_f_1_2)">
<path d="M1417.14 601.096C1260.3 613.86 1157.69 681.728 1057.51 838.962C854.562 1157.49 2032.21 1252.68 1869.59 904.605C1767.05 685.136 1617.47 584.791 1417.14 601.096Z" fill="#5B97F2"/>
</g>
<g filter="url(#filter2_f_1_2)">
<path d="M1444.76 674.928C1314.42 683.504 1229.35 731.618 1146.6 843.562C978.968 1070.34 1958.36 1142.38 1821.97 893.239C1735.97 736.151 1611.26 663.974 1444.76 674.928Z" fill="#C256D6"/>
</g>
<g filter="url(#filter3_f_1_2)">
<path d="M325.272 1263.15C211.491 1169.47 193.145 1087.4 125.076 967.513C-6.31975 736.089 37.578 564.012 -110.724 339.93C-413.325 -117.294 -566.025 1492.58 35.0903 1689.75C412.971 1813.7 1444.87 1698.1 1101.7 1525.1C964.655 1456 847.945 1483.55 697.46 1433.32C542.155 1381.49 441.386 1358.74 325.272 1263.15Z" fill="url(#paint1_linear_1_2)"/>
</g>
</g>
<defs>
<filter id="filter0_f_1_2" x="-425.261" y="247.09" width="1937.33" height="1538.64" filterUnits="userSpaceOnUse" color-interpolation-filters="sRGB">
<feFlood flood-opacity="0" result="BackgroundImageFix"/>
<feBlend mode="normal" in="SourceGraphic" in2="BackgroundImageFix" result="shape"/>
<feGaussianBlur stdDeviation="160" result="effect1_foregroundBlur_1_2"/>
</filter>
<filter id="filter1_f_1_2" x="713.918" y="279.387" width="1491.14" height="1165.96" filterUnits="userSpaceOnUse" color-interpolation-filters="sRGB">
<feFlood flood-opacity="0" result="BackgroundImageFix"/>
<feBlend mode="normal" in="SourceGraphic" in2="BackgroundImageFix" result="shape"/>
<feGaussianBlur stdDeviation="160" result="effect1_foregroundBlur_1_2"/>
</filter>
<filter id="filter2_f_1_2" x="807.23" y="353.846" width="1347.81" height="1015.9" filterUnits="userSpaceOnUse" color-interpolation-filters="sRGB">
<feFlood flood-opacity="0" result="BackgroundImageFix"/>
<feBlend mode="normal" in="SourceGraphic" in2="BackgroundImageFix" result="shape"/>
<feGaussianBlur stdDeviation="160" result="effect1_foregroundBlur_1_2"/>
</filter>
<filter id="filter3_f_1_2" x="-626.715" y="8.55721" width="2047.27" height="1983.04" filterUnits="userSpaceOnUse" color-interpolation-filters="sRGB">
<feFlood flood-opacity="0" result="BackgroundImageFix"/>
<feBlend mode="normal" in="SourceGraphic" in2="BackgroundImageFix" result="shape"/>
<feGaussianBlur stdDeviation="125" result="effect1_foregroundBlur_1_2"/>
</filter>
<linearGradient id="paint0_linear_1_2" x1="73.6895" y1="827.397" x2="1391.69" y2="668.397" gradientUnits="userSpaceOnUse">
<stop stop-color="#FAC83B"/>
<stop offset="1" stop-color="#64D39B"/>
</linearGradient>
<linearGradient id="paint1_linear_1_2" x1="54.156" y1="776.284" x2="295.1" y2="1335.53" gradientUnits="userSpaceOnUse">
<stop stop-color="#FB7B4A"/>
<stop offset="0.15625" stop-color="#FFE1C7"/>
</linearGradient>
<clipPath id="clip0_1_2">
<rect width="1512" height="982" fill="white"/>
</clipPath>
</defs>
</svg>
